<?xml version="1.0" encoding="UTF-8" standalone="no"?>
<!-- Created with Inkscape (http://www.inkscape.org/) -->

<svg
   width="119.17554mm"
   height="52.966431mm"
   viewBox="0 0 119.17554 52.966431"
   version="1.1"
   id="svg5"
   inkscape:version="1.1.2 (0a00cf5339, 2022-02-04)"
   sodipodi:docname="drawing.svg"
   xmlns:inkscape="http://www.inkscape.org/namespaces/inkscape"
   xmlns:sodipodi="http://sodipodi.sourceforge.net/DTD/sodipodi-0.dtd"
   xmlns="http://www.w3.org/2000/svg"
   xmlns:svg="http://www.w3.org/2000/svg">
  <sodipodi:namedview
     id="namedview7"
     pagecolor="#ffffff"
     bordercolor="#666666"
     borderopacity="1.0"
     inkscape:pageshadow="2"
     inkscape:pageopacity="0.0"
     inkscape:pagecheckerboard="0"
     inkscape:document-units="mm"
     showgrid="false"
     fit-margin-top="0"
     fit-margin-left="0"
     fit-margin-right="0"
     fit-margin-bottom="0"
     inkscape:zoom="0.69219276"
     inkscape:cx="340.22315"
     inkscape:cy="449.29681"
     inkscape:window-width="2560"
     inkscape:window-height="1299"
     inkscape:window-x="0"
     inkscape:window-y="32"
     inkscape:window-maximized="1"
     inkscape:current-layer="layer1" />
  <defs
     id="defs2" />
  <g
     inkscape:label="Layer 1"
     inkscape:groupmode="layer"
     id="layer1"
     transform="translate(-8.6659029,-29.612005)">
    <path
       d="m 127.84144,56.097355 -13.23895,-7.6454 v 5.45386 H 46.934503 l 13.17573,-13.92026 c 1.1213,-0.89879 2.58841,-1.52929 4.0976,-1.56421 6.10526,0 9.73084,-0.002 11.0654,-0.004 0.90461,2.5773 3.33455,4.43759 6.22327,4.43759 3.65442,0 6.62014,-2.96545 6.62014,-6.6212 0,-3.65734 -2.96545,-6.62173 -6.62014,-6.62173 -2.88872,0 -5.31866,1.85923 -6.22327,4.43442 l -10.93576,-0.002 c -2.96386,0 -6.06954,1.62613 -8.04624,3.53245 0.054,-0.0566 0.11007,-0.11694 -0.003,10e-4 -0.0418,0.0471 -13.979,14.76746 -13.979,14.76746 -1.11892,0.89746 -2.58524,1.524 -4.09336,1.55998 h -7.6549 c -1.01468,-5.05706 -5.48032,-8.86706 -10.83707,-8.86706 -6.10738,0 -11.0580001,4.95062 -11.0580001,11.05614 0,6.10738 4.9506201,11.05826 11.0580001,11.05826 5.35781,0 9.82345,-3.81317 10.83812,-8.87439 h 7.52078 c 0.0193,0 0.0386,0.001 0.0582,0 h 16.63462 c 1.50522,0.0384 2.96969,0.6657 4.08755,1.56422 0,0 13.93402,14.7193 13.97715,14.76693 0.11165,0.11826 0.0561,0.0566 0.001,0.001 1.9767,1.90605 5.0837,3.53113 8.04809,3.53113 l 10.53888,-0.002 v 4.43889 H 104.67065 V 69.337355 H 91.428253 v 4.4331 c 0,0 -2.77574,-0.005 -10.668,-0.005 -1.50945,-0.0347 -2.97815,-0.66437 -4.09892,-1.56316 l -13.17873,-13.92318 h 51.119887 v 5.46259 z"
       id="path1334"
       style="stroke-width:0.264583" />
  </g>
</svg>
